{"asset":{"generator":"Khronos glTF Blender I/O v3.2.40","version":"2.0"},"scene":0,"scenes":[{"name":"Scene","nodes":[0,1,2,3,4]}],"nodes":[{"mesh":0,"name":"Trunk","translation":[-2.1911888122558594,-0.6909375190734863,-1.3186609745025635]},{"mesh":1,"name":"Green_01","scale":[1.5542255640029907,1.5542255640029907,1.5542255640029907],"translation":[-5.652011394500732,4.164901256561279,1.8125295639038086]},{"mesh":2,"name":"Green_02","scale":[1.5542255640029907,1.5542255640029907,1.5542255640029907],"translation":[-4.482382774353027,5.604846000671387,-6.794507026672363]},{"mesh":3,"name":"Green_03","scale":[1.5542255640029907,1.5542255640029907,1.5542255640029907],"translation":[-0.5436409711837769,6.324491024017334,-7.09776496887207]},{"mesh":4,"name":"Green_04","scale":[1.5542255640029907,1.5542255640029907,1.5542255640029907],"translation":[2.5503058433532715,6.338762283325195,-3.1119508743286133]}],"materials":[{"doubleSided":true,"name":"Material","pbrMetallicRoughness":{"baseColorFactor":[0.2202596515417099,0.06207458674907684,0.012788021937012672,1],"metallicFactor":0,"roughnessFactor":0.4000000059604645}},{"doubleSided":true,"name":"Material.001","pbrMetallicRoughness":{"baseColorFactor":[0.11927732825279236,0.019665909931063652,0.004810497630387545,1],"metallicFactor":0,"roughnessFactor":0.5}},{"doubleSided":true,"name":"Green.003","pbrMetallicRoughness":{"baseColorFactor":[0.020394854247570038,0.25294631719589233,0.023660287261009216,1],"metallicFactor":0,"roughnessFactor":0.5}},{"doubleSided":true,"name":"Green.002","pbrMetallicRoughness":{"baseColorFactor":[0.019441261887550354,0.22658692300319672,0.010142741724848747,1],"metallicFactor":0,"roughnessFactor":0.5}},{"doubleSided":true,"name":"Green.004","pbrMetallicRoughness":{"baseColorFactor":[0.044688574969768524,0.8000000715255737,0.012754062190651894,1],"metallicFactor":0,"roughnessFactor":0.5}},{"doubleSided":true,"name":"Green.001","pbrMetallicRoughness":{"baseColorFactor":[0.0182502344250679,0.2202601432800293,0.021115398034453392,1],"metallicFactor":0,"roughnessFactor":0.5}}],"meshes":[{"name":"Cube","primitives":[{"attributes":{"POSITION":0,"NORMAL":1},"indices":2,"material":0},{"attributes":{"POSITION":3,"NORMAL":4},"indices":5,"material":1}]},{"name":"Icosphere","primitives":[{"attributes":{"POSITION":6,"NORMAL":7,"TEXCOORD_0":8},"indices":9,"material":2}]},{"name":"Icosphere.001","primitives":[{"attributes":{"POSITION":10,"NORMAL":11,"TEXCOORD_0":12},"indices":9,"material":3}]},{"name":"Icosphere.002","primitives":[{"attributes":{"POSITION":13,"NORMAL":14,"TEXCOORD_0":15},"indices":9,"material":4}]},{"name":"Icosphere.003","primitives":[{"attributes":{"POSITION":16,"NORMAL":17,"TEXCOORD_0":18},"indices":9,"material":5}]}],"accessors":[{"bufferView":0,"componentType":5126,"count":170,"max":[4.343585014343262,7.0968427658081055,3.4141547679901123],"min":[-3.1569905281066895,-0.12427598237991333,-5.303351402282715],"type":"VEC3"},{"bufferView":1,"componentType":5126,"count":170,"type":"VEC3"},{"bufferView":2,"componentType":5123,"count":240,"type":"SCALAR"},{"bufferView":3,"componentType":5126,"count":28,"max":[2.8241066932678223,6.436742305755615,1.727952480316162],"min":[-2.1077847480773926,0.10132735967636108,-3.7606866359710693],"type":"VEC3"},{"bufferView":4,"componentType":5126,"count":28,"type":"VEC3"},{"bufferView":5,"componentType":5123,"count":36,"type":"SCALAR"},{"bufferView":6,"componentType":5126,"count":240,"max":[0.9510578513145447,1,0.9999999403953552],"min":[-0.9510578513145447,-1,-0.9999999403953552],"type":"VEC3"},{"bufferView":7,"componentType":5126,"count":240,"type":"VEC3"},{"bufferView":8,"componentType":5126,"count":240,"type":"VEC2"},{"bufferView":9,"componentType":5123,"count":240,"type":"SCALAR"},{"bufferView":10,"componentType":5126,"count":240,"max":[0.9510578513145447,1,0.9999999403953552],"min":[-0.9510578513145447,-1,-0.9999999403953552],"type":"VEC3"},{"bufferView":11,"componentType":5126,"count":240,"type":"VEC3"},{"bufferView":12,"componentType":5126,"count":240,"type":"VEC2"},{"bufferView":13,"componentType":5126,"count":240,"max":[0.9510578513145447,1,0.9999999403953552],"min":[-0.9510578513145447,-1,-0.9999999403953552],"type":"VEC3"},{"bufferView":14,"componentType":5126,"count":240,"type":"VEC3"},{"bufferView":15,"componentType":5126,"count":240,"type":"VEC2"},{"bufferView":16,"componentType":5126,"count":240,"max":[0.9510578513145447,1,0.9999999403953552],"min":[-0.9510578513145447,-1,-0.9999999403953552],"type":"VEC3"},{"bufferView":17,"componentType":5126,"count":240,"type":"VEC3"},{"bufferView":18,"componentType":5126,"count":240,"type":"VEC2"}],"bufferViews":[{"buffer":0,"byteLength":2040,"byteOffset":0},{"buffer":0,"byteLength":2040,"byteOffset":2040},{"buffer":0,"byteLength":480,"byteOffset":4080},{"buffer":0,"byteLength":336,"byteOffset":4560},{"buffer":0,"byteLength":336,"byteOffset":4896},{"buffer":0,"byteLength":72,"byteOffset":5232},{"buffer":0,"byteLength":2880,"byteOffset":5304},{"buffer":0,"byteLength":2880,"byteOffset":8184},{"buffer":0,"byteLength":1920,"byteOffset":11064},{"buffer":0,"byteLength":480,"byteOffset":12984},{"buffer":0,"byteLength":2880,"byteOffset":13464},{"buffer":0,"byteLength":2880,"byteOffset":16344},{"buffer":0,"byteLength":1920,"byteOffset":19224},{"buffer":0,"byteLength":2880,"byteOffset":21144},{"buffer":0,"byteLength":2880,"byteOffset":24024},{"buffer":0,"byteLength":1920,"byteOffset":26904},{"buffer":0,"byteLength":2880,"byteOffset":28824},{"buffer":0,"byteLength":2880,"byteOffset":31704},{"buffer":0,"byteLength":1920,"byteOffset":34584}],"buffers":[{"byteLength":36504,"uri":"data:application/octet-stream;base64,"}]}